<?xml version="1.0" encoding="utf-8"?>
<svg id="master-artboard" viewBox="0 0 130 118" version="1.1" xmlns="http://www.w3.org/2000/svg" x="0px" y="0px" style="enable-background:new 0 0 1400 980;" width="130px" height="118px"><defs><style id="ee-google-fonts">@import url(https://fonts.googleapis.com/css?family=Trocchi:400);</style></defs><rect id="ee-background" x="0" y="0" width="130" height="118" style="fill: rgb(255, 255, 255); fill-opacity: 1; pointer-events: none;"/><g transform="matrix(1.0913126468658447, 0, 0, 1.0913126468658447, -640.7456097602844, -359.44307708740234)"><g id="g-1" transform="matrix(1, 0, 0, 1, 0, 0)">
	<g id="g-2">
		<path class="st0" d="M597.5,348.6L647,334l49.5,14.6c0.3,2.4,0.5,4.9,0.5,7.3c0,12.2-5.7,66.1-50,78.1c-44.3-12-50-65.8-50-78.1&#10;&#9;&#9;&#9;C597,353.5,597.2,351,597.5,348.6z" style="fill: rgb(51, 51, 51);"/>
	</g>
</g></g><path d="M 14.8100004196167 17 L 0.38999998569488525 17 L 0.38999998569488525 15.319999694824219 L 3.2300000190734863 15.319999694824219 L 3.2300000190734863 1.0399999618530273 L 0.38999998569488525 1.0399999618530273 L 0.38999998569488525 -0.6399993896484375 L 8.680000305175781 -0.6399993896484375 L 8.680000305175781 1.0399999618530273 L 6 1.0399999618530273 L 6 15.319999694824219 L 12.619999885559082 15.319999694824219 L 12.619999885559082 9.680000305175781 L 14.8100004196167 9.680000305175781 L 14.8100004196167 17 ZM 16.821552276611328 15.510000228881836 C 16.821552276611328 15.029999732971191 16.988218307495117 14.619999885559082 17.321552276611328 14.279999732971191 C 17.661550521850586 13.940000534057617 18.068218231201172 13.770000457763672 18.54155158996582 13.770000457763672 C 19.01488494873047 13.770000457763672 19.424884796142578 13.940000534057617 19.77155113220215 14.279999732971191 C 20.12488555908203 14.626667022705078 20.301551818847656 15.036666870117188 20.301551818847656 15.510000228881836 C 20.301551818847656 15.976666450500488 20.12488555908203 16.3799991607666 19.77155113220215 16.719999313354492 C 19.424884796142578 17.059999465942383 19.01488494873047 17.229999542236328 18.54155158996582 17.229999542236328 C 18.068218231201172 17.229999542236328 17.661550521850586 17.059999465942383 17.321552276611328 16.719999313354492 C 16.988218307495117 16.3799991607666 16.821552276611328 15.976666450500488 16.821552276611328 15.510000228881836 ZM 22.401315689086914 17 L 22.401315689086914 15.319999694824219 L 25.241315841674805 15.319999694824219 L 25.241315841674805 1.0399999618530273 L 22.401315689086914 1.0399999618530273 L 22.401315689086914 -0.6399993896484375 L 38.1113166809082 -0.6399993896484375 L 38.1113166809082 5.800000190734863 L 35.98131561279297 5.800000190734863 L 35.98131561279297 1.0399999618530273 L 28.011316299438477 1.0399999618530273 L 28.011316299438477 7.109999656677246 L 32.23131561279297 7.109999656677246 L 32.23131561279297 4.640000343322754 L 33.851318359375 4.640000343322754 L 33.851318359375 11.479999542236328 L 32.23131561279297 11.479999542236328 L 32.23131561279297 8.5 L 28.011316299438477 8.5 L 28.011316299438477 15.319999694824219 L 31.061317443847656 15.319999694824219 L 31.061317443847656 17 L 22.401315689086914 17 ZM 40.226890563964844 15.510000228881836 C 40.226890563964844 15.029999732971191 40.393558502197266 14.619999885559082 40.726890563964844 14.279999732971191 C 41.066890716552734 13.940000534057617 41.47355651855469 13.770000457763672 41.94689178466797 13.770000457763672 C 42.420223236083984 13.770000457763672 42.830223083496094 13.940000534057617 43.1768913269043 14.279999732971191 C 43.53022384643555 14.626667022705078 43.70689010620117 15.036666870117188 43.70689010620117 15.510000228881836 C 43.70689010620117 15.976666450500488 43.53022384643555 16.3799991607666 43.1768913269043 16.719999313354492 C 42.830223083496094 17.059999465942383 42.420223236083984 17.229999542236328 41.94689178466797 17.229999542236328 C 41.47355651855469 17.229999542236328 41.066890716552734 17.059999465942383 40.726890563964844 16.719999313354492 C 40.393558502197266 16.3799991607666 40.226890563964844 15.976666450500488 40.226890563964844 15.510000228881836 ZM 54.986656188964844 -1 C 56.05998992919922 -1 57.089988708496094 -0.7766666412353516 58.076656341552734 -0.3299999237060547 C 59.05665588378906 0.12333297729492188 59.86665725708008 0.7700004577636719 60.506656646728516 1.609999656677246 C 61.14665603637695 2.456666946411133 61.46665573120117 3.3966665267944336 61.46665573120117 4.430000305175781 C 61.46665573120117 4.956666946411133 61.25999069213867 5.443333625793457 60.846656799316406 5.890000343322754 C 60.426658630371094 6.336667060852051 59.86998748779297 6.560000419616699 59.176658630371094 6.560000419616699 C 58.58332443237305 6.560000419616699 58.10332489013672 6.386666297912598 57.736656188964844 6.039999961853027 C 57.36998748779297 5.693333625793457 57.1866569519043 5.216666221618652 57.1866569519043 4.609999656677246 C 57.1866569519043 4.010000228881836 57.416656494140625 3.5466670989990234 57.87665557861328 3.2200002670288086 C 58.33665466308594 2.8999996185302734 58.79998779296875 2.739999771118164 59.26665496826172 2.739999771118164 C 58.88665771484375 2.1533336639404297 58.31999206542969 1.6566667556762695 57.56665802001953 1.25 C 56.81999206542969 0.8433341979980469 55.95332336425781 0.6399993896484375 54.96665573120117 0.6399993896484375 C 53.373321533203125 0.6399993896484375 52.063323974609375 1.313333511352539 51.03665542602539 2.6599998474121094 C 50.00999069213867 4 49.49665832519531 5.796667098999023 49.49665832519531 8.050000190734863 C 49.49665832519531 8.90999984741211 49.633323669433594 9.75666618347168 49.906654357910156 10.59000015258789 C 50.179988861083984 11.423333168029785 50.563323974609375 12.183333396911621 51.05665588378906 12.869999885559082 C 51.54998779296875 13.550000190734863 52.179988861083984 14.100000381469727 52.9466552734375 14.520000457763672 C 53.71332550048828 14.940000534057617 54.553321838378906 15.149999618530273 55.46665573120117 15.149999618530273 C 56.15998840332031 15.149999618530273 56.80665588378906 15.020000457763672 57.406654357910156 14.760000228881836 C 58.01332092285156 14.5 58.52332305908203 14.163333892822266 58.9366569519043 13.75 C 59.34999084472656 13.329999923706055 59.699989318847656 12.876667022705078 59.986656188964844 12.389999389648438 C 60.26665496826172 11.90333366394043 60.473323822021484 11.399999618530273 60.60665512084961 10.880000114440918 L 62.176658630371094 11.639999389648438 C 61.76332092285156 13.446666717529297 60.92332458496094 14.84333324432373 59.656654357910156 15.829999923706055 C 58.389991760253906 16.823333740234375 56.7499885559082 17.31999969482422 54.736656188964844 17.31999969482422 C 53.52332305908203 17.31999969482422 52.3933219909668 17.06999969482422 51.346656799316406 16.56999969482422 C 50.29998779296875 16.06999969482422 49.416656494140625 15.396666526794434 48.6966552734375 14.550000190734863 C 47.97665786743164 13.710000038146973 47.41332244873047 12.719999313354492 47.006656646728516 11.579999923706055 C 46.59999084472656 10.440000534057617 46.39665603637695 9.246665954589844 46.39665603637695 8 C 46.39665603637695 6.7133331298828125 46.60665512084961 5.513333320617676 47.02665710449219 4.399999618530273 C 47.43999099731445 3.293333053588867 48.01665496826172 2.3433332443237305 48.756656646728516 1.5500001907348633 C 49.49665832519531 0.7566661834716797 50.403324127197266 0.1333332061767578 51.47665786743164 -0.31999969482421875 C 52.55665588378906 -0.7733325958251953 53.72665786743164 -1 54.986656188964844 -1 ZM 64.0773696899414 15.510000228881836 C 64.0773696899414 15.029999732971191 64.24403381347656 14.619999885559082 64.5773696899414 14.279999732971191 C 64.91737365722656 13.940000534057617 65.32403564453125 13.770000457763672 65.79737091064453 13.770000457763672 C 66.27070617675781 13.770000457763672 66.68070220947266 13.940000534057617 67.02737426757812 14.279999732971191 C 67.38070678710938 14.626667022705078 67.557373046875 15.036666870117188 67.557373046875 15.510000228881836 C 67.557373046875 15.976666450500488 67.38070678710938 16.3799991607666 67.02737426757812 16.719999313354492 C 66.68070220947266 17.059999465942383 66.27070617675781 17.229999542236328 65.79737091064453 17.229999542236328 C 65.32403564453125 17.229999542236328 64.91737365722656 17.059999465942383 64.5773696899414 16.719999313354492 C 64.24403381347656 16.3799991607666 64.0773696899414 15.976666450500488 64.0773696899414 15.510000228881836 Z" transform="matrix(1.251976728439331, 0, 0, 1.251976728439331, 22.75974464416504, 41.313167572021484)" style="fill: rgb(227, 25, 7); white-space: pre; color: rgb(167, 19, 5);"/></svg>